<?xml version="1.0" encoding="utf-8"?>
<!-- Generator: Adobe Illustrator 19.2.1, SVG Export Plug-In . SVG Version: 6.00 Build 0)  -->
<svg version="1.1" id="Layer_1" xmlns="http://www.w3.org/2000/svg" xmlns:xlink="http://www.w3.org/1999/xlink" x="0px" y="0px"
	 viewBox="0 0 254 27" style="enable-background:new 0 0 254 27;" xml:space="preserve">
<style type="text/css">
	.st0{fill:#7AB929;}
</style>
<g>
	<path class="st0" d="M3.8,2h1.9L3.1,7.1H1.7L3.8,2z M7,2h1.9L6.3,7.1H4.9L7,2z"/>
	<path class="st0" d="M9.1,14.8h1.7l-0.3,1.5c-0.3,1.6,1.7,2.2,3.6,2.2c2.5,0,4.5-1.4,4.5-3.7c0-4.2-7.8-2.5-7.8-7.8
		c0-3.2,3-5,6.4-5c2,0,5,0.9,4.6,2.9l-0.3,1.8h-1.7l0.2-1.3c0.2-1.3-1.7-1.7-3-1.7c-2.3,0-4.3,1.3-4.3,3.4c0,3.9,7.8,2.3,7.8,7.7
		c0,3.3-3,5.5-6.5,5.5c-2.2,0-5.6-0.9-5-3.6L9.1,14.8z"/>
	<path class="st0" d="M30.5,6.9c3.1,0,4.5,1.9,4.5,4.5c0,1-0.4,2-0.4,2H25c0,0-0.1,0.5-0.1,1.2c0,2.2,1.4,3.9,4,3.9
		c2.3,0,4.1-1.5,4.1-1.5l0.5,1.4c0,0-2.1,1.6-4.7,1.6c-3.4,0-5.7-2.1-5.7-5.3C23.1,10.7,26.2,6.9,30.5,6.9z M33.1,12.3
		c0,0,0.1-0.5,0.1-1c0-2-1.2-3-2.9-3c-2.1,0-4.2,1.4-5.1,3.9H33.1z"/>
	<path class="st0" d="M44.8,6.9c1.7,0,4.5,0.7,4.2,2.8L48.8,11h-1.6l0.2-0.9c0.2-1.2-1.5-1.6-2.7-1.6c-2.9,0-6,2.6-6,6.1
		c0,2.5,1.7,4,4.1,4c2.6,0,4.4-1.7,4.4-1.7l0.5,1.4c0,0-1.9,1.9-5.1,1.9c-3.4,0-5.8-2.1-5.8-5.5C36.9,10.4,40.7,6.9,44.8,6.9z"/>
	<path class="st0" d="M52,15.2l1.2-6.6H51l0.2-1.4h3.9l-1.4,7.5c-0.1,0.6-0.2,1.2-0.2,1.7c0,1.2,0.5,2,2.2,2c2.8,0,5.1-2.8,5.6-5.5
		l0.8-4.4H60l0.3-1.4h3.9l-1.8,9.3c0,0.3-0.1,0.5-0.1,0.7c0,1,0.6,1.2,1.2,1.2c0.4,0,0.6,0,0.6,0l-0.3,1.4c0,0-0.5,0-1,0
		c-1.8,0-2.5-1.2-2.2-2.9h-0.1c-0.7,1.2-2.6,3.2-5.4,3.2c-1.8,0-3.4-0.9-3.4-3.2C51.8,16.4,51.9,15.8,52,15.2z"/>
	<path class="st0" d="M69.6,9.2c0-0.3,0-0.5-0.4-0.5h-1.7l0.3-1.4h2.4c0.9,0,1.3,0.3,1.3,1c0,0.3-0.3,1.7-0.5,2.3h0
		c0.9-1.8,2.5-3.4,4.6-3.4c0.3,0,0.5,0,0.7,0.1l-0.3,1.7c-0.2,0-0.4,0-0.6,0c-2.7,0-4.7,3.5-5.2,6.2l-0.9,4.7h-1.7L69.6,9.2z"/>
	<path class="st0" d="M77.5,16.7l1.6-8.1h-2.2l0.3-1.4h3.9l-1.8,9.3c0,0.3-0.1,0.5-0.1,0.7c0,1,0.6,1.2,1.2,1.2c0.4,0,0.6,0,0.6,0
		l-0.3,1.4c0,0-0.5,0-0.9,0c-1,0-2.5-0.2-2.5-2.2C77.4,17.4,77.5,17.1,77.5,16.7z M80.2,2.2h1.9l-0.4,2.1h-1.9L80.2,2.2z"/>
	<path class="st0" d="M86.4,9.2c0-0.3,0-0.5-0.5-0.5h-1.7l0.3-1.4H87c1,0,1.3,0.4,1.3,1c0,0.3-0.2,1.5-0.4,2h0
		c0.5-1.1,2.5-3.3,5.6-3.3c2.2,0,3.4,1.2,3.4,3.2c0,1.5-1.2,6.1-1.2,7.1c0,1.1,0.6,1.2,1.2,1.2c0.4,0,0.6,0,0.6,0l-0.3,1.4
		c0,0-0.5,0-0.9,0c-0.9,0-2.4-0.2-2.4-2.1c0-1.1,1.2-5.7,1.2-7.1c0-1.4-0.8-2.1-2.2-2.1c-2.7,0-5.2,2.5-5.7,5.5l-1.1,5.8h-1.7
		L86.4,9.2z"/>
	<path class="st0" d="M103.5,23.6c2.5,0,4.7-1.1,5.3-4.5c0.2-1.1,0.4-1.6,0.4-1.6h0c-1,1.5-2.3,2.3-4.2,2.3c-3,0-4.8-2-4.8-5
		c0-3.5,2.3-7.8,6.6-7.8c2,0,3.6,0.8,4,2.3h0c0,0,0-0.2,0-0.6c0.2-0.9,0.7-1.4,1.7-1.4h2.3l-0.2,1.4H113c-0.3,0-0.6,0.2-0.7,0.5
		l-2,10.5c-0.8,4-3.8,5.4-6.7,5.4c-1.9,0-3.3-0.5-4.2-1l0.8-1.3C100.2,22.7,101.6,23.6,103.5,23.6z M105.2,18.2
		c3.3,0,4.9-3.8,4.9-6.7c0-2.3-1.4-3.1-3.2-3.1c-3.2,0-5,3.2-5,6.2C101.9,16.9,103.1,18.2,105.2,18.2z"/>
	<path class="st0" d="M123,15l1.2-6.3h-2.2l0.3-1.4h2.3l0.7-3.5h1.7l-0.7,3.5h3.2L129,8.6h-3.2l-1.2,6.4c-0.1,0.4-0.1,0.8-0.1,1.1
		c0,2,1.2,2.3,2.2,2.3c0.4,0,0.7,0,0.7,0l-0.3,1.4c0,0-0.3,0.1-0.6,0.1c-1.6,0-3.7-0.5-3.7-3.5C122.8,16,122.9,15.5,123,15z"/>
	<path class="st0" d="M133.2,3.6H131l0.3-1.4h3.8l-1.3,6.8c-0.1,0.6-0.3,1.1-0.3,1.1h0.1c0.5-1,2.5-3.2,5.5-3.2
		c2.2,0,3.5,1.2,3.5,3.2c0,1.5-1.2,6.1-1.2,7.1c0,1.1,0.6,1.2,1.2,1.2c0.4,0,0.6,0,0.6,0l-0.3,1.4c0,0-0.5,0-0.9,0
		c-0.9,0-2.4-0.2-2.4-2.1c0-1.1,1.2-5.7,1.2-7.1c0-1.4-0.8-2.1-2.1-2.1c-2.8,0-5.2,2.5-5.8,5.5l-1.1,5.8h-1.7L133.2,3.6z"/>
	<path class="st0" d="M153.1,6.9c3.1,0,4.5,1.9,4.5,4.5c0,1-0.4,2-0.4,2h-9.6c0,0-0.1,0.5-0.1,1.2c0,2.2,1.4,3.9,4,3.9
		c2.3,0,4.1-1.5,4.1-1.5l0.5,1.4c0,0-2.1,1.6-4.7,1.6c-3.4,0-5.7-2.1-5.7-5.3C145.8,10.7,148.8,6.9,153.1,6.9z M155.8,12.3
		c0,0,0.1-0.5,0.1-1c0-2-1.2-3-2.9-3c-2.1,0-4.2,1.4-5.1,3.9H155.8z"/>
	<path class="st0" d="M165.2,18.4h2.3l2.8-14.7H168l0.3-1.4h11.8L179.4,6h-1.6l0.5-2.2h-6.2l-1.3,6.6h6.4l-0.3,1.5h-6.4l-1.2,6.4
		h2.4l-0.3,1.4h-6.5L165.2,18.4z"/>
	<path class="st0" d="M181.2,15.2l1.2-6.6h-2.2l0.2-1.4h3.9l-1.4,7.5c-0.1,0.6-0.2,1.2-0.2,1.7c0,1.2,0.5,2,2.2,2
		c2.8,0,5.1-2.8,5.6-5.5l0.8-4.4h-2.2l0.3-1.4h3.9l-1.8,9.3c0,0.3-0.1,0.5-0.1,0.7c0,1,0.6,1.2,1.2,1.2c0.4,0,0.6,0,0.6,0l-0.3,1.4
		c0,0-0.5,0-1,0c-1.8,0-2.5-1.2-2.2-2.9h0c-0.7,1.2-2.6,3.2-5.4,3.2c-1.8,0-3.4-0.9-3.4-3.2C181,16.4,181,15.8,181.2,15.2z"/>
	<path class="st0" d="M197.3,15l1.2-6.3h-2.2l0.3-1.4h2.3l0.7-3.5h1.7l-0.7,3.5h3.2l-0.3,1.4h-3.2l-1.2,6.4
		c-0.1,0.4-0.1,0.8-0.1,1.1c0,2,1.2,2.3,2.2,2.3c0.4,0,0.7,0,0.7,0l-0.3,1.4c0,0-0.3,0.1-0.6,0.1c-1.6,0-3.7-0.5-3.7-3.5
		C197.1,16,197.2,15.5,197.3,15z"/>
	<path class="st0" d="M205.6,15.2l1.2-6.6h-2.2l0.2-1.4h3.9l-1.4,7.5c-0.1,0.6-0.2,1.2-0.2,1.7c0,1.2,0.5,2,2.2,2
		c2.8,0,5.1-2.8,5.6-5.5l0.8-4.4h-2.2l0.3-1.4h3.9l-1.8,9.3c0,0.3-0.1,0.5-0.1,0.7c0,1,0.6,1.2,1.2,1.2c0.4,0,0.6,0,0.6,0l-0.3,1.4
		c0,0-0.5,0-1,0c-1.8,0-2.5-1.2-2.2-2.9h-0.1c-0.7,1.2-2.6,3.2-5.4,3.2c-1.8,0-3.4-0.9-3.4-3.2C205.4,16.4,205.5,15.8,205.6,15.2z"
		/>
	<path class="st0" d="M223.1,9.2c0.1-0.3,0-0.5-0.4-0.5H221l0.3-1.4h2.4c0.9,0,1.3,0.3,1.3,1c0,0.3-0.3,1.7-0.5,2.3h0
		c0.9-1.8,2.5-3.4,4.6-3.4c0.3,0,0.5,0,0.7,0.1l-0.3,1.7c-0.2,0-0.4,0-0.6,0c-2.7,0-4.7,3.5-5.2,6.2l-0.9,4.7h-1.7L223.1,9.2z"/>
	<path class="st0" d="M237.3,6.9c3.1,0,4.5,1.9,4.5,4.5c0,1-0.4,2-0.4,2h-9.6c0,0-0.1,0.5-0.1,1.2c0,2.2,1.4,3.9,4,3.9
		c2.3,0,4.1-1.5,4.1-1.5l0.5,1.4c0,0-2.1,1.6-4.7,1.6c-3.4,0-5.7-2.1-5.7-5.3C230,10.7,233,6.9,237.3,6.9z M240,12.3
		c0,0,0.1-0.5,0.1-1c0-2-1.2-3-2.9-3c-2.1,0-4.2,1.4-5.1,3.9H240z"/>
	<path class="st0" d="M247.2,2h1.9l-2.6,5.1h-1.4L247.2,2z M250.4,2h1.9l-2.6,5.1h-1.4L250.4,2z"/>
</g>
</svg>
