<?xml version="1.0" encoding="utf-8"?>
<!-- Generator: Adobe Illustrator 19.2.1, SVG Export Plug-In . SVG Version: 6.00 Build 0)  -->
<svg version="1.1" id="Layer_1" xmlns="http://www.w3.org/2000/svg" xmlns:xlink="http://www.w3.org/1999/xlink" x="0px" y="0px"
	 viewBox="0 0 300 80" style="enable-background:new 0 0 300 80;" xml:space="preserve">
<style type="text/css">
	.st0{fill:url(#SVGID_1_);}
	.st1{fill:#1D1E1C;}
	.st2{fill:#007C4C;}
	.st3{fill:#7AB929;}
</style>
<g>
	<g>
		<linearGradient id="SVGID_1_" gradientUnits="userSpaceOnUse" x1="0.1393" y1="25.6529" x2="73.4921" y2="25.6529">
			<stop  offset="0" style="stop-color:#7AB929"/>
			<stop  offset="0.168" style="stop-color:#6CB22D"/>
			<stop  offset="0.4849" style="stop-color:#479F38"/>
			<stop  offset="0.9138" style="stop-color:#0D8249"/>
			<stop  offset="1" style="stop-color:#007C4C"/>
		</linearGradient>
		<path class="st0" d="M1,43.1c1.1,0.6,2.4,2.3,2.4,2.3C2.8,47.4,6.2,47,6.2,47l3.5-0.2l2.6,2.6c1.8,2.5,4.5,0.5,4.5,0.5
			c1.5,2.2,3.8-0.2,3.8-0.2c1.7-3.3,7.5-4.1,7.5-4.1c1.9-0.1,5.7-6.4,5.7-6.4c0.7,0.7,8.6,0.4,8.6,0.4c2.1,1.6,5.6,0.8,5.6,0.8
			c0.2,0.9,4.1,1.5,4.1,1.5c2.1,2.1,6.7,1.2,6.7,1.2c0.5,0.9,3.4,0.7,3.4,0.7c0.5,1.8,2.1,0.2,2.1,0.2c0.7,1.3,3.4,0.2,3.4,0.2
			c3.2,0,4.3-3.4,4.3-3.4c0.9,0,0.9-3.1,0.9-3.1c1.1-1.1,0.2-2.8,0.2-2.8c-0.9-1.7-2,0.8-2,0.8c-0.9-0.3-1.5,1.2-1.5,1.2
			c-0.8-0.3-2.1,0.5-2.1,0.5c0.2-1.2-1.3-1.3-1.3-1.3l-0.7-1.2c-0.8-1.4-1.8,0-1.8,0c-0.7,2.2-1.7,0-1.7,0c-0.1-1.4-2.2-1.6-2.2-1.6
			c-0.5-1.5-2.3-1.4-2.3-1.4c0.4-1.8-2.1-2.2-2.1-2.2c0.6-2-1.2-4.4-1.2-4.4c-1.5-1.9-2.2-0.3-2.2-0.3c-0.2-0.5-1.2-0.4-1.2-0.4
			c1.4-3.2-3.1-5.5-3.1-5.5c0-0.8-2.9-2.4-2.9-2.4c-0.7-1.4-3.6-1.1-3.6-1.1c-2.6-0.3-2.1-2.6-2.1-2.6c0.7-1.5-1.1-2.2-1.1-2.2
			c1.1-2.4-2-3.7-2-3.7c-1.6-2.1-4.3-1.6-4.3-1.6c-2.2-1-3.9-0.2-3.9-0.2c0-1-2.3-1.1-2.7-2.1c-0.4-1-1.2-1.9-3.5-2.4
			c-2.3-0.5-3.2,1.1-3.3,2.2c-0.1,1-1.7,2.4-1.7,2.4C15.3,6.4,16,8.6,16,8.6c-0.7,0.1-0.5,2.3-0.5,2.3c-2.5,1.2-1.7,4.3-1.7,4.3
			c-1-0.3-1.5,1.9-1.5,1.9c-1.3-0.8-2.7,1-2.7,1c-1.8-0.4-2.3,1.9-2.3,1.9c-1.3,0.6-0.6,4.7-0.6,4.7c-1.9-0.2-1.5,1.7-1.5,1.7
			c-1.4,0-1.9,2.2-1.9,2.2c-0.9,0-1.5,2-1.5,2c-1.5,0.7,0.2,3.1,0.2,3.1c-1.2,0.8-0.1,2.9-0.1,2.9c-1.5,0-1.2,1.3-1.2,1.3
			c-0.9,0.6,0.2,2,0.2,2C0.8,39.9-0.8,42.1,1,43.1z"/>
		<path class="st1" d="M32.5,79.5h3.4V59.9c0-15,18.3-29.7,18.3-29.7c-12.5,7-17.9,17.3-18.7,19.3c-1.3,3.1-2.9,2.8-2.9,2.8h0
			c0,0-1.6,0.3-2.9-2.8c-0.8-2-6.2-12.3-18.7-19.3c0,0,18.3,14.7,18.3,29.7v19.6H32.5L32.5,79.5z"/>
		<ellipse class="st1" cx="32.5" cy="46.8" rx="2.9" ry="2.9"/>
	</g>
	<g>
		<g>
			<path class="st2" d="M85.5,43.7l-8.9-0.9c1-2.1,2.6-3.6,4.7-4.5c2.1-0.9,5.3-1.3,9.5-1.3c1.5,0,2.9,0,4.2,0.1
				c1.2,0.1,2.3,0.2,3.3,0.4c2,0.4,3.5,1,4.4,1.7c1,0.8,1.6,1.6,2,2.6c0.4,0.9,0.6,2.4,0.6,4.4v6.3h2.8v6.8H94v-1.5
				c-2,1.3-4.6,1.9-7.8,1.9c-3.1,0-5.4-0.7-7-2c-1.6-1.3-2.4-2.9-2.4-4.8c0-2,1-3.7,2.9-5c1.9-1.3,4.4-2,7.5-2
				c2.8,0,5.1,0.4,6.7,1.1v-0.7c0-1.3-0.1-2.3-0.3-2.8c-0.2-0.6-0.7-1.1-1.4-1.5c-0.8-0.4-1.6-0.6-2.6-0.6
				C87.9,41.6,86.5,42.3,85.5,43.7z M94,53.8v-4c-1-0.5-2.1-0.8-3.2-0.8c-1,0-1.8,0.3-2.4,0.8c-0.6,0.6-0.9,1.3-0.9,2.1
				c0,0.9,0.3,1.6,0.9,2.2c0.6,0.6,1.3,0.9,2.1,0.9C92,55,93.1,54.6,94,53.8z"/>
			<path class="st2" d="M128.6,59.4h-17.1v-6.8h2.7v-8.1h-2.7v-6.8h14.1v3c1.1-0.9,2.5-1.7,4.3-2.4c1.7-0.7,3.4-1,5-1
				c3.7,0,6.2,1.4,7.5,4.3c3.3-2.8,6.8-4.3,10.3-4.3c1.9,0,3.5,0.4,4.7,1.2c1.3,0.8,2.1,1.9,2.7,3.3c0.5,1.4,0.8,3.4,0.8,5.9v4.9
				h2.9v6.8h-14.2V50c0-2.4-0.2-4-0.6-4.6c-0.4-0.6-1.1-0.9-2-0.9c-1.2,0-2.5,0.5-3.7,1.4v6.6h3.1v6.8h-14.4v-9.3
				c0-2.4-0.2-3.9-0.5-4.6c-0.3-0.6-1-0.9-2-0.9c-1.2,0-2.4,0.5-3.6,1.4v6.6h3.1V59.4z"/>
			<path class="st2" d="M175.4,43.7l-8.9-0.9c1-2.1,2.6-3.6,4.7-4.5c2.1-0.9,5.3-1.3,9.5-1.3c1.5,0,2.9,0,4.2,0.1
				c1.2,0.1,2.3,0.2,3.3,0.4c2,0.4,3.5,1,4.4,1.7c1,0.8,1.6,1.6,2,2.6c0.4,0.9,0.6,2.4,0.6,4.4v6.3h2.8v6.8h-14.1v-1.5
				c-2,1.3-4.6,1.9-7.8,1.9c-3.1,0-5.4-0.7-7-2c-1.6-1.3-2.4-2.9-2.4-4.8c0-2,1-3.7,2.9-5c1.9-1.3,4.4-2,7.5-2
				c2.8,0,5.1,0.4,6.7,1.1v-0.7c0-1.3-0.1-2.3-0.3-2.8c-0.2-0.6-0.7-1.1-1.4-1.5c-0.8-0.4-1.6-0.6-2.6-0.6
				C177.8,41.6,176.4,42.3,175.4,43.7z M183.9,53.8v-4c-1-0.5-2.1-0.8-3.2-0.8c-1,0-1.8,0.3-2.4,0.8c-0.6,0.6-0.9,1.3-0.9,2.1
				c0,0.9,0.3,1.6,0.9,2.2c0.6,0.6,1.3,0.9,2.1,0.9C181.9,55,183,54.6,183.9,53.8z"/>
			<path class="st2" d="M227.5,59.4h-26.4v-5.7l12.3-10.9H206v2.5h-4.6v-7.7h26.4V43l-12.5,11.2h7.5v-2.6h4.7V59.4z"/>
			<path class="st2" d="M231.5,48.4c0-3.2,1.4-5.9,4.1-8.1c2.7-2.2,6.4-3.3,10.9-3.3c4.6,0,8.4,1.1,11.3,3.2
				c2.9,2.1,4.3,4.9,4.3,8.3c0,3.3-1.4,6-4.1,8.2c-2.8,2.2-6.4,3.3-10.9,3.3c-4.9,0-8.7-1.1-11.4-3.3
				C232.9,54.5,231.5,51.8,231.5,48.4z M243,48.4c0,3.5,1.2,5.2,3.7,5.2c2.6,0,4-1.8,4-5.3c0-1.6-0.3-2.8-1-3.7
				c-0.7-0.9-1.6-1.3-2.8-1.3c-1.2,0-2.1,0.4-2.9,1.3C243.4,45.5,243,46.8,243,48.4z"/>
			<path class="st2" d="M283,59.4h-17.3v-6.8h2.8v-8.1h-2.8v-6.8h14.1v2.8c2.8-2.1,5.8-3.2,8.9-3.2c2.8,0,4.9,0.8,6.3,2.3
				c1.4,1.5,2.1,4,2.1,7.4v5.6h2.6v6.8h-13.9v-9.7c0-2.1-0.2-3.5-0.5-4.2c-0.4-0.7-1.1-1-2.2-1c-1,0-2.1,0.4-3.2,1.1v6.8h3.2V59.4z"
				/>
		</g>
		<g>
			<path class="st3" d="M83.3,72c0-0.6,0-1.1-0.4-1.5c-0.4-0.3-1.3-0.4-1.6-0.4c-1.5,0-2.1,0.6-2.2,0.8C79,71,78.7,71.3,78.7,73v2.7
				c0,2.4,1.2,2.7,2.6,2.7c0.6,0,2.3-0.1,2.3-2.1h1.9c0.1,3.2-3.2,3.2-4.1,3.2c-1.8,0-4.6-0.1-4.6-4v-2.8c0-2.8,1.8-3.6,4.7-3.6
				c2.9,0,4,1,3.8,3H83.3z"/>
			<path class="st3" d="M92.3,79.3v-10h1.9v4.3h5.1v-4.3h1.9v10h-1.9v-4.6h-5.1v4.6H92.3z"/>
			<path class="st3" d="M111.8,69.3h2.4l4.7,10h-2.1l-1-2.4h-5.6l-1.1,2.4h-1.9L111.8,69.3z M113,70.5L113,70.5l-2.3,5.3h4.7
				L113,70.5z"/>
			<path class="st3" d="M126.7,74.7v4.6h-1.9v-10h5c2.6,0,3.5,1.2,3.5,2.5c0,1.2-0.9,2.1-2.7,2.3v0c1.7,0.2,2.3,0.6,2.4,2.6
				c0,0.4,0.2,2,0.5,2.6h-1.9c-0.5-0.7-0.4-2-0.6-3.3c-0.1-1.2-1.6-1.3-2.2-1.3H126.7z M126.7,73.6h2.8c1.3,0,2-0.8,2-1.7
				c0-0.7-0.5-1.5-2-1.5h-2.8V73.6z"/>
			<path class="st3" d="M142.2,79.3h-1.9v-10h1.9V79.3z"/>
			<path class="st3" d="M157.9,69.3v1.1h-3.8v8.9h-1.9v-8.9h-3.8v-1.1H157.9z"/>
			<path class="st3" d="M165.7,69.3h2.4l4.7,10h-2.1l-1-2.4H164l-1.1,2.4h-1.9L165.7,69.3z M166.8,70.5L166.8,70.5l-2.3,5.3h4.7
				L166.8,70.5z"/>
			<path class="st3" d="M178.9,79.3v-10h4.7c2,0,2.7,0.5,3.2,1c0.5,0.5,0.6,1.1,0.6,1.3c0,1.2-0.6,2.1-2.5,2.4v0.1
				c2.1,0.2,3,1,3,2.4c0,2.6-2.7,2.8-4.4,2.8H178.9z M180.8,73.5h2.7c1.5,0,2.2-0.6,2.2-1.6c0-0.8-0.7-1.5-2.2-1.5h-2.6V73.5z
				 M180.8,78.1h2.6c2,0,2.7-1,2.7-1.7c0-1.6-1.4-1.9-3.3-1.9h-2V78.1z"/>
			<path class="st3" d="M195.1,79.3v-10h1.9v8.9h5.3v1.1H195.1z"/>
			<path class="st3" d="M208.1,79.3v-10h7.5v1.1H210v3.2h5.2v1.1H210v3.5h5.8v1.1H208.1z"/>
			<path class="st3" d="M238.9,69.3v1.1h-3.8v8.9h-1.9v-8.9h-3.8v-1.1H238.9z"/>
			<path class="st3" d="M246.7,74.7v4.6h-1.9v-10h5c2.6,0,3.5,1.2,3.5,2.5c0,1.2-0.9,2.1-2.7,2.3v0c1.7,0.2,2.3,0.6,2.4,2.6
				c0,0.4,0.2,2,0.5,2.6h-1.9c-0.5-0.7-0.4-2-0.6-3.3c-0.1-1.2-1.6-1.3-2.2-1.3H246.7z M246.7,73.6h2.8c1.3,0,2-0.8,2-1.7
				c0-0.7-0.5-1.5-2-1.5h-2.8V73.6z"/>
			<path class="st3" d="M260,69.3h1.9v6.4c0,2.2,1,2.7,2.7,2.7c1.8,0,2.7-0.6,2.7-2.7v-6.4h1.9v6.3c0,2.8-1.5,3.9-4.6,3.9
				c-3.1,0-4.6-1.1-4.6-3.9V69.3z"/>
			<path class="st3" d="M277.9,76.3v0.3c0,1.4,1.3,1.8,2.4,1.8c1.5,0,2.6-0.4,2.6-1.6c0-2.2-6.5-2-6.5-5c0-1.8,1.8-2.7,4.3-2.7
				c2.7,0,4.2,0.9,4,2.9h-1.9c0-1.1-0.5-1.8-2.2-1.8c-1.1,0-2.2,0.4-2.2,1.5c0,2.2,6.5,1.9,6.5,5c0,2.1-2.1,2.8-4.5,2.8
				c-4.3,0-4.3-2.2-4.3-3.2H277.9z"/>
			<path class="st3" d="M299.9,69.3v1.1H296v8.9h-1.9v-8.9h-3.8v-1.1H299.9z"/>
		</g>
	</g>
</g>
</svg>
